<?xml version="1.0" encoding="utf-8" ?><svg xmlns="http://www.w3.org/2000/svg" xmlns:xlink="http://www.w3.org/1999/xlink" width="1024" height="1024" viewBox="0 0 1024 1024"><path fill="#664227" d="M496.676 103.239C565.169 102.105 621.538 114.245 681.388 148.752C760.714 194.028 818.327 269.496 841.092 357.952C879.32 501.257 808.179 658.627 677.743 727.738C676.39 728.455 673.577 732.584 672.27 733.981C664.762 742.005 656.544 746.017 646.086 748.804C637.327 762.32 633.551 766.835 619.2 774.73C628.214 776.109 636.15 778.68 643.542 784.049C651.859 767.824 672.782 743.474 693.68 747.431C715.464 751.557 714.52 775.228 711.038 792.135C719.116 788.832 725.727 787.097 734.437 788.684C741.929 790.049 746.761 789.282 754.17 788.445C760.035 787.783 765.489 787.869 771.457 786.809C776.133 775.374 779.882 761.272 790.315 753.469C800.537 745.824 819.788 746.406 827.155 757.777C832.126 765.448 829.196 776.583 827.133 784.883C828.016 784.89 828.898 784.916 829.78 784.96C833.234 785.133 833.984 785.679 836.281 788.213C856.882 779.274 883.828 781.38 888.464 807.981C889.235 812.406 889.048 816.988 889.017 821.47C928.239 849.564 854.506 924.545 807.904 888.872C792.399 899.689 776.852 903.093 760.406 891.912C747.606 901.043 735.023 901.666 721.179 894.133C708.888 900.141 699.5 902.386 685.644 897.861C682.19 896.473 680.346 895.218 677.746 892.583C665.524 901.518 649.004 903.802 635.653 895.813C630.642 892.814 627.703 888.217 624.586 883.474C612.4 896.097 600.459 903.249 582.365 900.879C573.619 899.734 567.925 897.215 560.97 891.908C559.37 892.983 557.736 894.006 556.068 894.974C536.233 906.495 506.87 907.407 494.129 885.134C486.755 892.886 478.16 898.965 467.527 901.131C455.409 903.651 442.787 901.119 432.577 894.121C417.683 904.207 400.242 905.845 386.49 892.804C375.365 904.595 362.559 904.415 348.812 897.989C317.121 922.436 269.123 923.436 256.072 879.196C239.9 887.163 227.023 888.888 210.357 881.155C200.027 887.864 192.481 887.794 181.294 883.482C170.619 886.816 157.135 888.574 147.68 880.872C127.61 864.525 136.982 832.292 150.705 814.995C159.933 803.364 171.977 797.431 186.587 795.696C188.859 792.277 191.372 787.422 192.066 783.378C193.322 776.052 188.143 772.982 184.474 767.89C174.38 753.883 179.138 729.871 181.848 714.045C157.474 712.973 143.206 701.919 142.899 676.024C142.69 658.321 152.973 639.397 165.521 627.322C180.104 613.288 198.056 606.683 218.335 607.139C211.898 598.507 205.367 584.872 200.869 575.065C183.348 536.854 173.147 495.575 171.229 453.504C167.697 364.365 199.827 277.492 260.511 212.104C321.533 145.729 406.573 106.528 496.676 103.239ZM628.748 839.448C630.213 831.01 631.71 820.218 626.373 813.276C617.676 801.966 598.692 805.794 588.95 813.437C579.253 820.477 573.112 830.512 568.676 841.498C567.694 843.931 566.676 849.98 565.233 852.29C559.149 862.03 537.177 881.015 526.471 867.665C523.207 863.595 524.363 853.203 525.679 848.325C528.437 837.802 533.855 825.765 543.195 819.512C546.072 817.586 551.019 816.598 552.729 820.571C554.924 825.671 548.911 831.843 546.735 836.346L547.426 836.627C561.842 842.344 571.287 826.514 565.967 814.913C564.336 811.3 561.308 808.505 557.576 807.167C541.475 801.24 523.296 815.194 515.385 828.06C513.738 830.739 511.275 835.113 509.207 837.269C505.652 838.746 503.176 838.924 499.371 839.453C501.077 825.613 501.294 808.929 482.428 806.826C473.107 805.787 463.372 809.83 456.302 815.903C450.436 821.006 445.625 827.208 442.141 834.158C436.638 845.272 437.001 856.176 428.188 865.202C426.532 866.897 419.314 873.448 416.441 868.239C413.485 854.304 443.436 817.505 422.899 808.11C419.39 806.462 415.348 806.375 411.772 807.871C400.665 812.444 394.104 820.954 386.74 830.003C389.776 824.833 393.327 813.482 395.532 807.396C397.862 800.963 407.199 780.657 406.477 774.989C403.173 771.195 392.502 772.928 387.998 773.983C381.962 791.997 376.333 809.707 369.674 827.628C364.961 840.997 359.84 854.503 356.205 868.202C355.286 871.662 354.725 879.379 356.269 882.226C358.271 885.915 367.761 887.165 371.372 884.969C374.269 883.206 373.876 879.508 374.876 876.552C377.207 864.361 382.46 852.45 389.232 842.086C392.165 837.598 401.494 823.654 407.984 825.496C408.926 826.714 409.247 827.58 408.929 829.363C405.985 845.801 389.237 864.544 398.948 881.264C400.434 883.823 404.612 885.818 407.518 886.04C419.739 886.975 429.663 877.412 435.846 867.918C438.239 874.568 441.416 881.832 448.279 884.566C470.544 893.438 486.547 872.354 493.775 855.828C494.393 854.395 494.975 852.947 495.519 851.485C499.005 850.539 502.485 849.572 505.959 848.582C503.101 863.565 502.115 883.013 522.262 886.634C540.032 889.827 553.785 878.465 565.782 866.842C569.216 877.417 572.614 883.544 584.383 885.884C605.834 887.228 619.037 868.877 625.701 850.794C630.308 850.043 632.943 848.911 637.29 847.247C635.443 857.341 634.116 868.611 639.97 877.785C646.86 888.583 661.113 885.608 669.784 878.914C674.337 875.398 678.634 870.993 682.692 866.842C684.12 872.532 685.652 878.847 691.085 881.896C705.007 889.708 718.633 876.265 726.408 867.095C726.794 876.293 729.667 884.336 740.639 883.164C751.289 882.026 758.637 873.581 764.994 865.814C770.986 897.687 802.08 878.672 811.511 861.25C814.759 878.797 826.891 884.678 843.464 881.381C858.821 878.325 871.213 866.809 879.516 854.058C881.904 850.391 886.43 841.364 881.844 837.872C877.147 839.535 868.177 860.885 849.227 866.274C845.833 867.239 841.86 867.709 838.565 866.147C835.692 864.785 833.948 862.233 832.963 859.278C831.902 856.093 831.932 852.709 832.04 849.394C844.749 849.927 850.83 847.88 861.217 839.42C874.014 828.998 881.068 800.138 857.379 799.166C848.397 798.797 836.71 805.695 830.298 812.441C826.353 816.63 822.979 821.321 820.263 826.394C817.822 830.893 813.33 840.747 811.968 844.47C809.831 850.313 791.522 871.408 786.265 864.59C780.921 857.657 797.241 819.631 800.285 812.087C805.189 811.845 809.903 811.64 814.707 811.091C820.145 810.469 824.935 804.597 820.651 800.401C818.589 798.381 807.626 800.052 804.215 799.916C806.218 794.799 815.011 770.434 813.687 766.687C808.722 762.717 800.433 765.773 795.685 768.852C792.757 774.534 787.094 793.885 784.685 801.125C781.81 801.426 771.475 801.937 770.104 804.308C766.496 810.548 772.994 814.48 779.16 814.113L779.635 814.766C778.662 818.927 776.324 822.993 775.102 827.052C770.534 842.23 764.794 855.743 751.613 865.49C748.437 867.838 746.152 865.745 744.423 863.142C746.39 851.818 748.649 844.744 752.981 834.085C756.696 824.943 760.94 815.935 763.236 806.378C761.209 803.969 758.558 804.168 755.598 804.326C749.778 804.637 746.307 808.223 742.595 812.191C740.386 808.619 737.271 805.216 732.809 804.527C714.614 801.715 700.178 817.176 691.593 831.216C687.424 836.444 686.857 844.646 684.381 849.836C681.292 856.314 669.904 869.57 661.837 867.829C654.624 866.272 655.285 855.502 656.422 849.908C657.535 844.438 663.928 841.683 667.299 837.59C681.569 822.158 694.401 804.419 696.862 782.937C697.37 778.505 697.769 771.554 695.453 767.566C693.248 763.769 689.093 763.851 685.27 764.121C672.854 767.511 664.597 780.246 658.505 790.882C650.363 804.907 644.117 819.951 639.932 835.619C635.576 837.743 633.615 838.523 628.748 839.448ZM213.804 856.309C214.653 860.904 216.47 865.639 220.493 868.26C232.974 876.391 251.405 866.555 258.926 855.636C261.598 851.757 261.686 850.387 261.689 846.082L260.736 845.218C256.21 846.525 243.786 864.917 233.573 859.736C229.115 857.474 228.816 851.789 228.341 847.606C238.277 847.064 245.772 844.535 252.642 837.139C258.647 830.672 262.904 819.005 254.549 813.004C244.252 805.609 229.329 815.614 223.162 824.335C217.834 831.869 216.054 838.138 213.159 846.691C211.95 849.879 206.095 856.548 202.53 857.902C198.731 857.511 199.761 852.026 200.463 849.298C205.933 828.037 215.187 807.878 223.542 787.664C225.751 782.315 219.495 781.405 215.862 781.243C213.367 781.621 211.423 781.853 208.987 782.577C204.685 795.561 201.92 802.292 196.499 815.011C184.925 805.374 171.073 815.474 162.178 825.716C152.131 837.286 143.073 872.495 169.261 870.462C174.821 870.03 180.731 863.443 183.822 858.557C184.719 862.396 185.595 867.312 189.221 869.396C199.079 875.06 208.994 862.703 213.804 856.309ZM564.449 651.899C552.425 668.404 549.704 650.921 536.518 650.609C531.28 651.602 528.447 652.97 525.445 657.604C522.471 662.196 520.969 669.487 527.37 671.864C530.809 670.477 531.261 663.586 538.921 667.059C547.119 670.776 549.224 673.897 558.994 671.198C564.357 668.626 572.629 661.858 569.548 654.835C568.847 653.238 566.038 652.582 564.449 651.899ZM639.654 718.579C641.975 709.162 644.452 696.044 638.933 687.183C630.697 673.96 608.79 676.604 597.719 684.428C582.886 694.913 578.403 709.826 571.673 725.746C570.325 728.934 557.231 744.883 552.043 743.972C543.266 740.058 556.024 714.676 558.028 708.515C559.985 702.5 568.719 687.559 567.31 682.451C565.248 680.009 562.791 680.197 559.797 680.28C554.247 680.434 550.938 682.675 547.3 686.641C544.709 682.431 541.2 678.958 536.215 678.037C515.659 674.283 497.804 694.099 489.502 710.666C487.547 714.565 486.517 718.468 483.635 722.947C470.719 743.015 428.527 766.025 437.44 720.943C439.206 712.012 446.143 697.958 454.263 692.683C460.87 688.645 466.041 689.421 466.284 698.011C464.32 701.941 461.094 705.491 461.355 709.16C462.032 710.255 462.311 710.828 463.705 711.156C476.776 714.226 487.243 697.712 480.377 686.724C477.257 681.455 471.824 678.506 465.792 677.768C445.02 675.228 428.689 692.652 420.01 709.53C415.867 717.588 415.731 725.101 409.123 731.948C404.417 736.825 398.647 743.772 390.985 742.815C388.767 742.55 386.759 741.376 385.439 739.574C382.09 734.917 383.677 727.013 384.144 721.601C390.502 715.476 397.551 708.968 403.108 702.044C414.906 687.341 427.957 667.12 428.874 647.754C429.406 636.5 424.439 633.055 414.347 633.58C392.525 639.236 380.69 669.779 372.829 688.718C365.611 706.108 365.716 724.941 350.95 738.874C348.516 741.171 344.574 745.213 340.999 744.18C333.341 736.966 354.446 695.799 356.692 686.287C357.16 684.305 357.147 682.963 355.91 681.288C352.429 679.158 339.486 677.386 337.473 682.005C334.949 687.296 334.666 691.651 332.457 697.236C326.601 712.043 320.396 734.434 305.606 742.193C302.883 743.341 299.072 742.36 299.035 738.99C298.836 721.246 311.542 704.413 316.025 687.795C318.394 679.016 304.25 679.241 299.086 680.187C298.505 680.291 297.926 680.408 297.35 680.54C295.108 685.446 294.397 690.624 292.391 695.514C288.086 706.01 283.719 715.924 280.18 726.754C276.984 736.537 274.502 753.651 286.609 758.587C300.28 764.161 313.049 753.981 320.902 743.452C319.598 765.137 341.019 763.602 352.271 752.305C354.682 749.885 360.923 741.2 362.516 740.887C363.393 742.068 363.252 753.958 369.225 757.935C383.997 767.769 401.214 755.171 410.753 743.105C411.742 741.843 412.694 740.553 413.609 739.237C415.027 744.304 416.075 748.265 419.223 752.636C427.162 763.655 441.932 764.51 453.864 760.743C466.618 756.717 474.856 748.988 482.832 738.689C486.017 773.144 515.939 764.609 528.969 743.89C529.727 753.857 532.564 762.677 545.027 760.961C556.673 759.359 565.368 749.624 572.52 741.025C576.057 759.451 590.393 765.342 607.252 761.609C622.544 756.061 629.243 747.638 636.158 732.9C636.263 732.682 636.364 732.463 636.463 732.242C646.722 730.865 655.067 728.001 661.769 719.477C664.618 715.853 668.958 706.577 661.261 705.683C652.877 712.465 651.291 717.24 639.654 718.579ZM331.54 772.63C312.695 775.693 302.413 785.416 291.091 799.864C267.532 829.929 251.177 906.654 313.177 897.395C326.511 895.404 359.745 873.513 350.206 858.624C347.677 858.245 337.938 870.888 334.015 873.622C326.38 879.377 319.077 883.097 309.015 881.851C304.009 881.231 300.135 878.937 297.073 874.896C291.469 867.5 292.253 852.535 294.067 843.739C298.42 824.465 307.312 802.726 323.969 790.923C327.892 788.143 334.625 785.932 339.155 786.876C345.586 788.216 344.506 797.923 343.056 802.461C341.606 806.998 338.175 812.138 339.645 816.839C341.631 821.675 350.441 819.683 353.576 817.402C358.749 813.639 361.916 807.603 363.046 801.492C364.276 794.914 362.793 788.119 358.933 782.652C352.205 773.094 342.09 771.982 331.54 772.63ZM235.179 653.848C241.338 613.871 205.302 618.892 182.714 634.9C167.878 645.415 152.611 672.204 163.839 689.587C167.231 694.918 173.48 695.516 179.06 695.548L179.563 695.548C176.249 677.53 183.011 651.882 200.529 643.231C225.01 631.141 209.899 669.745 208.089 679.288C204.847 696.379 185.824 749.405 201.348 762.171C205.083 765.257 209.945 766.626 214.741 765.942C229.773 763.89 246.018 745.023 254.334 733.535C258.822 727.298 262.959 720.817 266.726 714.12C272.975 703.09 298.045 655.601 295.981 644.682C295.575 642.532 294.199 640.725 292.382 639.558C288.574 637.113 284.077 637.424 279.863 638.242C277.235 663.36 248.888 725.054 228.944 740.795C226.678 742.584 223.079 744.844 220 744.238C218.752 743.993 218.298 743.552 217.776 742.393C214.18 734.413 226.98 688.754 229.779 677.626C231.56 671.767 234.53 659.733 235.179 653.848Z"/><path fill="#E0C5E3" d="M263.544 638.965C254.971 628.175 246.066 616.611 238.708 604.985C200.885 546.063 184.41 475.954 192.031 406.353C201.231 321.485 244.195 243.89 311.241 191.05C380.596 136.21 463.424 114.971 550.814 125.286C633.99 134.559 710.037 176.608 762.115 242.121C815.856 310.457 840.218 389.286 829.666 475.853C819.421 558.067 776.845 632.812 711.355 683.558C701.855 690.855 691.932 697.586 681.639 703.714C676.084 692.517 669.665 689.669 657.397 690.093C656.331 686.496 655.578 684.026 654.146 680.573C653.862 680.051 653.566 679.535 653.261 679.026C640.989 658.599 613.321 658.232 594.025 667.955C589.671 670.15 584.796 673.97 580.452 676.638C587.295 659.582 597.116 644.692 571.4 638.608C573.681 629.737 577.922 617.485 580.732 608.492L597.613 553.662C603.709 533.548 609.682 513.398 615.531 493.211C618.725 482.156 621.879 469.947 625.397 459.101C640.39 450.353 641.448 444.883 645.945 428.735C648.791 418.516 651.172 409.13 653.281 398.676C656.004 398.014 658.573 397.35 661.24 396.471C674.569 392.105 685.6 382.594 691.882 370.053C697.858 357.793 698.748 343.668 694.359 330.755C688.808 314.9 676.908 304.449 662.106 297.36C660.102 261.015 645.036 233.163 615.902 211.618C616.83 193.268 612.443 182.673 598.624 170.169C585.281 161.26 581.569 162.475 566.54 158.661C561.364 157.348 552.565 151.804 546.102 149.924C520.193 142.385 491.835 143.217 466.153 151.31C455.914 154.608 447.457 158.964 438.097 163.859C419.178 177.345 407.402 186.061 407.602 211.275C383.446 229.041 367.312 255.653 362.732 285.286C362.153 289.065 361.604 294.471 361.457 298.259C333.298 311.519 316.792 342.358 330.978 371.876C336.54 383.474 346.554 392.333 358.744 396.44C363.093 397.945 366.861 398.56 371.38 399.396C372.966 410.74 377.253 435.944 382.688 445.658C384.833 449.414 387.746 452.676 391.236 455.231C393.422 456.851 395.706 458.098 398.137 459.306C413.191 508.859 426.608 558.685 441.991 608.308C444.954 617.657 447.845 627.029 450.662 636.422C453.131 644.655 455.756 654.045 458.986 661.953C451.654 662.957 449.101 663.375 442.285 665.964C444.519 658.028 445.69 653.252 445.565 645.08C445.101 614.682 416.248 610.988 395.045 624.768C379.406 634.932 370.788 650.673 363.848 667.328C354.526 663.831 349.953 662.651 340.082 663.807C333.788 665.37 331.693 666.283 325.976 669.427C319.689 665.072 316.392 664.771 309.027 663.969C311.222 657.658 313.03 652.172 313.475 645.505C313.047 644.391 312.687 641.339 312.215 639.813C309.446 630.847 303.359 627.31 295.482 623.286C287.598 620.838 279.355 619.657 271.682 623.876C268.017 625.881 265.375 629.345 264.41 633.409C264.016 635.059 263.761 637.259 263.544 638.965Z"/><path fill="#E0C5E3" d="M295.482 623.286C294.475 620.437 283.848 608.77 281.17 605.389C246.424 561.516 224.786 502.611 223.517 446.723C221.206 371.062 249.389 297.645 301.734 242.965C331.694 211.541 368.034 187.368 408.635 172.262C415.248 169.802 431.383 164.022 438.097 163.859C419.178 177.345 407.402 186.061 407.602 211.275C383.446 229.041 367.312 255.653 362.732 285.286C362.153 289.065 361.604 294.471 361.457 298.259C333.298 311.519 316.792 342.358 330.978 371.876C336.54 383.474 346.554 392.333 358.744 396.44C363.093 397.945 366.861 398.56 371.38 399.396C372.966 410.74 377.253 435.944 382.688 445.658C384.833 449.414 387.746 452.676 391.236 455.231C393.422 456.851 395.706 458.098 398.137 459.306C413.191 508.859 426.608 558.685 441.991 608.308C444.954 617.657 447.845 627.029 450.662 636.422C453.131 644.655 455.756 654.045 458.986 661.953C451.654 662.957 449.101 663.375 442.285 665.964C444.519 658.028 445.69 653.252 445.565 645.08C445.101 614.682 416.248 610.988 395.045 624.768C379.406 634.932 370.788 650.673 363.848 667.328C354.526 663.831 349.953 662.651 340.082 663.807C333.788 665.37 331.693 666.283 325.976 669.427C319.689 665.072 316.392 664.771 309.027 663.969C311.222 657.658 313.03 652.172 313.475 645.505C313.047 644.391 312.687 641.339 312.215 639.813C309.446 630.847 303.359 627.31 295.482 623.286Z"/><path fill="#FEF7DA" d="M313.475 645.505C316.542 648.143 319.789 650.564 323.193 652.751C326.008 654.583 338.781 662.229 340.082 663.807C333.788 665.37 331.693 666.283 325.976 669.427C319.689 665.072 316.392 664.771 309.027 663.969C311.222 657.658 313.03 652.172 313.475 645.505Z"/><path fill="#FEF7DA" d="M263.544 638.965C254.971 628.175 246.066 616.611 238.708 604.985C200.885 546.063 184.41 475.954 192.031 406.353C201.231 321.485 244.195 243.89 311.241 191.05C380.596 136.21 463.424 114.971 550.814 125.286C633.99 134.559 710.037 176.608 762.115 242.121C815.856 310.457 840.218 389.286 829.666 475.853C819.421 558.067 776.845 632.812 711.355 683.558C701.855 690.855 691.932 697.586 681.639 703.714C676.084 692.517 669.665 689.669 657.397 690.093C656.331 686.496 655.578 684.026 654.146 680.573C661.108 678.503 677.445 667.144 683.816 662.505C743.821 618.931 784.088 553.332 795.781 480.102C806.541 406.96 788.016 332.525 744.227 272.959C714.114 231.959 676.977 201.326 630.189 181.282C620.686 177.211 608.758 171.715 598.624 170.169C585.281 161.26 581.569 162.475 566.54 158.661C561.364 157.348 552.565 151.804 546.102 149.924C520.193 142.385 491.835 143.217 466.153 151.31C455.914 154.608 447.457 158.964 438.097 163.859C431.383 164.022 415.248 169.802 408.635 172.262C368.034 187.368 331.694 211.541 301.734 242.965C249.389 297.645 221.206 371.062 223.517 446.723C224.786 502.611 246.424 561.516 281.17 605.389C283.848 608.77 294.475 620.437 295.482 623.286C287.598 620.838 279.355 619.657 271.682 623.876C268.017 625.881 265.375 629.345 264.41 633.409C264.016 635.059 263.761 637.259 263.544 638.965Z"/><path fill="#7C4E2B" d="M413.167 228.585C422.367 233.525 430.42 238.459 441.312 235.212C445.728 233.895 456.118 226.48 459.183 227.784C460.643 228.405 462.271 230.915 462.61 232.412C463.434 236.049 459.723 242.648 458.67 246.358C453.453 264.752 449.562 293.224 467.517 306.31C473.992 311.029 482.522 311.528 490.161 310.178C497.325 308.912 504.016 305.724 508.235 299.565C512.806 292.893 514.964 283.277 515.228 275.291C515.524 266.324 508.605 233.81 521.269 231.382C523.343 230.984 525.919 231.166 527.656 232.476C534.589 237.706 530.656 254.742 549.017 261.738C553.412 263.413 558.1 264.19 562.797 263.745C570.039 263.107 576.704 259.533 581.245 253.855C585.14 248.948 587.651 242.539 589.242 236.528C623.753 255.942 617.726 309.357 578.447 318.704C575.077 319.506 564.461 321.008 562.424 322.913C562.843 325.074 565.8 328.147 567.609 329.242C575.576 334.067 586.898 336.062 596.03 334.074C601.876 332.801 608.347 329.983 613.806 329.236C619.295 331.296 628.298 334.899 630.741 340.466C633.862 347.576 626.515 358.084 619.757 360.419C615.014 362.059 611.111 361.624 606.722 359.325C601.801 356.823 597.17 353.121 592.725 349.809C589.596 356.733 587.413 363.854 579.657 366.742C573.452 369.053 566.158 367.8 560.241 365.155C556.106 363.306 552.001 359.374 547.718 359.609C537.692 364.296 555.95 387.53 536.782 396.452C520.878 403.853 505.527 401.783 491.213 392.781C479.849 399.057 468.877 401.699 456.02 398.12C449.704 396.361 445.982 392.751 439.997 391.02C437.566 390.317 433.06 391.355 430.342 391.152C415.289 390.028 407.517 385.037 400.43 372.184C388.363 378.099 377.041 383.367 363.728 378.83C332.955 368.342 335.583 327.499 363.252 314.988C369.839 312.01 374.19 311.749 381.146 311.024C379.824 299.111 377.017 285.402 382.146 273.527C387.582 256.577 393.006 247.696 405.391 234.653C407.417 232.196 410.48 230.337 413.167 228.585Z"/><path fill="#905B33" d="M405.391 234.653C409.626 233.99 414.062 235.267 417.899 237.01C419.514 240.178 420.478 242.313 421.787 245.619C398.199 255.032 405.655 261.645 392.827 273.35C390.392 273.658 384.156 274.738 382.146 273.527C387.582 256.577 393.006 247.696 405.391 234.653Z"/><path fill="#664227" d="M435.594 350.304C441.19 351.729 442.369 359.204 446.837 362.835C454.456 369.026 467.254 368.619 475.639 364.099C478.256 362.688 485.466 357.056 487.768 356.909C490.776 360.18 488.085 366.592 486.204 369.968C482.107 376.702 468.105 379.527 460.725 379.718C454.143 379.888 445.797 378.615 441.034 373.693C436.596 369.106 432.529 362.855 432.445 356.265C432.432 353.339 433.717 352.271 435.594 350.304Z"/><path fill="#664227" d="M384.117 332.946L398.507 333.125C395.052 338.526 391.058 343.913 387.442 349.564C385.655 352.013 384.034 355.176 380.714 353.607C379.413 351.844 379.108 350.898 378.935 348.629C378.523 342.922 380.386 337.284 384.117 332.946Z"/><path fill="#664227" d="M478.449 819.584C482.482 819.92 486.245 822.276 486.747 826.943C486.893 832.395 480.729 830.483 478.568 833.882C474.792 839.819 477.336 846.158 482.27 850.309C478.77 860.115 475.907 865.458 466.619 870.795C461.728 872.276 456.152 872.284 455.091 866.11C452.663 851.985 463.728 823.476 478.449 819.584Z"/><path fill="#664227" d="M729.379 816.058C741.895 815.626 734.223 832.217 731.705 838.362C727.657 848.237 721.397 863.777 710.499 867.494C700.641 867.892 702.578 858.298 704.095 851.521C706.717 839.804 716.889 819.384 729.379 816.058Z"/><path fill="#664227" d="M607.514 819.101C612.778 818.508 618.015 820.905 616.343 827.571C615.483 831.001 611.109 831.046 607.868 835.081C606.607 842.018 606.696 844.275 611.743 849.391C608.883 858.704 605.269 864.522 596.847 869.602C592.65 871.211 586.615 872.029 585.389 866.545C582.203 852.302 593.885 824.17 607.514 819.101Z"/><path fill="#664227" d="M681.904 779.692L683.048 779.949C683.957 780.752 684.305 780.91 684.327 782.452C684.562 799.325 672.216 819.119 661.044 830.7L659.911 831.285L659.42 830.846C661.42 819.649 674.084 787.882 681.904 779.692Z"/><path fill="#664227" d="M853.736 811.962C861.066 812.719 858.069 819.758 855.986 823.96C852.338 831.32 846.453 837.198 838.554 839.8C837.211 840.12 836.23 840.245 834.878 840.424L834.328 839.875C834.241 838.221 834.638 836.664 835.372 835.188C839.463 826.969 844.83 815.59 853.736 811.962Z"/><path fill="#664227" d="M617.585 691.653C624.132 691.005 629.393 696.446 626.469 703.013C625.702 704.736 621.917 703.925 620.591 705.399C613.903 712.828 616.58 721.246 622.183 728.205C619.131 737.064 615.621 742.331 606.923 746.689C601.1 748.132 594.974 747.347 593.656 740.405C590.834 725.551 601.892 695.574 617.585 691.653Z"/><path fill="#664227" d="M531.639 690.597C541.513 690.137 542.136 694.743 539.018 703.373C534.229 716.629 526.958 737.561 513.843 744.234C492.139 747.051 512.656 697.914 531.639 690.597Z"/><path fill="#664227" d="M412.694 648.395L413.52 648.961C415.779 652.713 413.064 660.761 411.76 664.663C406.987 679.427 398.951 692.926 388.247 704.159L387.32 704.156C387.525 701.911 391.036 690.087 392.036 687.905C396.247 678.72 403.433 652.789 412.694 648.395Z"/><path fill="#CF5A42" d="M424.652 214.004C420.42 203.593 426.048 192.284 434.273 185.622C457.881 166.5 486.959 157.704 517.147 160.053C527.924 160.328 541.107 163.513 550.725 168.297C557.139 171.703 563.7 176.368 571.385 175.771C583.465 174.831 602.195 190.46 600.573 203.451C595.871 230.993 579.232 204.526 566.895 213.655C560.619 218.298 563.984 223.912 567.404 228.799C576.133 241.271 563.333 252.195 550.478 245.48L550.093 244.94C542.972 234.749 547.276 219.521 525.951 214.943C520.739 213.721 514.714 215.116 510.372 218.053C503.692 222.571 500.708 230.347 499.192 237.959C497.613 245.893 498.868 254.952 499.296 262.834C499.855 273.112 501.611 285.849 492.16 292.792C485.333 297.808 475.617 295.584 471.274 288.027C466.351 276.229 469.17 262.518 471.853 250.609C474.028 240.957 479.743 226.928 474.467 217.761C469.413 208.982 459.835 205.714 451.291 211.678C445.791 215.517 440.235 221.193 433.052 220.058C429.638 219.513 426.552 216.744 424.652 214.004Z"/><path fill="#E58764" d="M424.652 214.004C420.42 203.593 426.048 192.284 434.273 185.622C457.881 166.5 486.959 157.704 517.147 160.053C504.368 170.899 493.131 169.752 477.335 173.191C465.043 175.867 454.906 180.571 444.847 187.992C432.027 197.451 441.005 211.402 424.652 214.004Z"/><path fill="#EFB45B" d="M632.049 403.571C632.49 403.728 632.197 403.59 632.782 404.205C631.138 413.765 627.162 432.255 623.659 440.597C620.217 448.791 585.25 453.124 576.943 454.106C527.861 459.895 477.324 459.21 428.578 450.799C419.544 449.241 409.536 446.837 401.268 442.914C395.574 440.213 394.831 434.041 393.299 428.454C391.421 419.808 390.037 412.738 388.934 403.983C404.932 409.139 421.44 411.391 437.871 414.519C439.519 414.832 443.969 417.839 445.891 418.596C461.956 424.921 477.938 423.412 493.856 417.566C519.145 428.787 538.541 426.63 562.001 412.826C573.391 415.516 583.529 415.83 595.002 412.934C598.689 412.003 605.094 409.366 608.36 408.789C617.141 407.237 623.536 406.011 632.049 403.571Z"/><path fill="#664227" d="M187.146 820.486C189.539 820.506 190.531 820.476 192.112 822.388C192.662 825.154 191.427 828.945 190.389 831.54C186.794 840.528 183.145 854.836 173.853 859.244C164.194 858.352 168.314 847.016 170.543 840.969C173.637 832.578 178.702 824.282 187.146 820.486Z"/><path fill="#664227" d="M245.314 819.502C246.38 819.904 246.311 819.905 247.144 820.7C250.583 829.275 238.702 837.78 231.777 840.561L230.397 840.401L230.129 839.539C231.212 832.637 238.326 821.596 245.314 819.502Z"/><path fill="#EFB45B" d="M509.96 603.363C511.696 604.46 519.816 612.154 521.62 613.842C529.857 621.404 537.932 629.14 545.839 637.047C522.733 631.04 509.725 644.194 506.306 666.153C480.57 671.179 477.284 662.113 470.062 640.291C482.678 628.926 497.89 615.04 509.96 603.363Z"/><path fill="#EFB45B" d="M470.846 485.349C472.937 487.049 478.465 493.286 480.758 495.684L501.207 516.712C494.672 523.954 478.322 538.824 470.729 545.413C460.605 535.587 449.302 524.72 439.732 514.437C450.164 504.806 460.536 495.11 470.846 485.349Z"/><path fill="#EFB45B" d="M549.07 486.82C551.246 488.157 556.169 492.61 558.261 494.419C565.916 501.096 573.491 507.863 580.986 514.719C571.527 524.498 561.934 534.146 552.209 543.661C551.372 544.467 551.871 544.252 550.714 544.313L520.965 516.78L549.07 486.82Z"/><path fill="#EFB45B" d="M511.021 526.799C513.37 527.798 537.025 550.778 541.242 554.56C532.218 563.68 520.422 574.674 510.813 583.135C508.694 582.496 484.093 558.588 480.551 555.199C490.702 546.078 501.002 536.129 511.021 526.799Z"/><path fill="#EFB45B" d="M551.649 564.104C554.923 566.048 567.867 577.568 571.522 580.703C567.658 594.723 561.513 612.028 556.863 626.039C554.241 623.44 551.056 620.647 548.31 618.12C539.305 609.7 530.257 601.325 521.167 592.997C530.405 583.777 542.052 572.902 551.649 564.104Z"/><path fill="#EFB45B" d="M469.634 565.307C472.715 566.721 495.488 589.785 499.269 593.596C492.203 600.582 482.618 608.696 475.004 615.35C471.694 618.193 468.363 621.01 465.01 623.802C460.268 609.506 456.144 595.245 451.552 580.939C457.539 575.959 464.057 570.674 469.634 565.307Z"/><path fill="#EFB45B" d="M482.979 472.589C499.417 473.876 519.377 473.733 535.714 473.014L540.076 477.405C534.606 482.956 529.168 488.538 523.763 494.152C519.486 498.443 515.261 502.784 511.089 507.176C500.556 497.227 489.927 486.25 479.663 475.94L482.979 472.589Z"/><path fill="#EFB45B" d="M604.056 465.658L605.177 465.72L605.446 466.466C603.657 473.625 601.311 480.659 599.219 487.727C596.92 495.49 596.096 499.445 590.102 505.075C584.838 501.173 578.744 495.937 573.586 491.733C568.074 487.043 562.633 482.269 557.266 477.414C559.732 474.875 561.183 473.408 563.924 471.19C577.381 469.979 590.773 468.133 604.056 465.658Z"/><path fill="#EFB45B" d="M417.535 464.752C423.551 465.387 431.264 467.253 437.576 468.094C443.761 468.919 451.284 469.576 457.219 470.732L462.355 476.109C457.754 480.756 453.029 485.278 448.183 489.669C444.09 493.482 434.687 502.686 430.185 505.11C426.166 495.733 420.939 475.468 417.535 464.752Z"/><path fill="#EFB45B" d="M586.883 527.54L586.936 527.572C587.274 528.596 577.644 560.173 576.394 564.393L568.384 558.465L562.123 553.511C570.395 545.038 578.691 536.128 586.883 527.54Z"/><path fill="#7C4E2B" d="M635.247 312.41C640.459 312.691 644.674 314.211 646.696 319.761C648.204 323.902 647.92 333.364 642.206 334.779C641.307 335.002 641.03 334.502 640.173 333.948C634.295 327.778 632.417 327.214 625.237 322.866C629.105 319.395 631.815 316.271 635.247 312.41Z"/><path fill="#EFB45B" d="M437.342 531.757C439.375 532.731 457.035 551.713 460.11 554.81C458.322 556.53 455.884 558.486 453.957 560.124L447.057 565.819C443.536 554.548 440.297 543.19 437.342 531.757Z"/></svg>